<svg xmlns="http://www.w3.org/2000/svg" version="1.1" xmlns:xlink="http://www.w3.org/1999/xlink" width="512" height="512" x="0" y="0" viewBox="0 0 512 512" style="enable-background:new 0 0 512 512" xml:space="preserve" class=""><g><path fill="#838383" d="M152.842 359.583c-9.77 0-17.691-7.921-17.691-17.691V187.799h-19.026c-9.77 0-17.691-7.921-17.691-17.691s7.921-17.691 17.691-17.691h36.717c9.77 0 17.691 7.921 17.691 17.691v171.785c0 9.77-7.921 17.69-17.691 17.69zM311.344 239.778c7.304-9.2 11.683-20.822 11.683-33.454 0-29.725-24.183-53.908-53.908-53.908s-53.906 24.183-53.906 53.908c0 12.632 4.379 24.254 11.683 33.454-15.319 12.359-25.143 31.269-25.143 52.439 0 37.146 30.221 67.367 67.367 67.367s67.367-30.221 67.367-67.367c-.001-21.17-9.825-40.08-25.143-52.439zm-60.749-33.454c0-10.214 8.31-18.525 18.524-18.525 10.215 0 18.525 8.311 18.525 18.525s-8.31 18.525-18.525 18.525c-10.214.001-18.524-8.31-18.524-18.525zm18.524 117.877c-17.636 0-31.985-14.349-31.985-31.985s14.349-31.985 31.985-31.985 31.985 14.349 31.985 31.985c0 17.637-14.348 31.985-31.985 31.985z" opacity="1" data-original="#838383" class=""></path><path fill="#5a5a5a" d="M311.343 239.778c7.304-9.2 11.683-20.822 11.683-33.454a53.614 53.614 0 0 0-3.593-19.317c-9.732 25.461-23.57 50.681-41.346 74.514 13.283 3.888 23.016 16.173 23.016 30.696 0 17.636-14.349 31.985-31.985 31.985-13.187 0-24.533-8.023-29.42-19.443a341.217 341.217 0 0 1-27.444 23.512c11.964 18.803 32.974 31.314 56.864 31.314 37.146 0 67.367-30.221 67.367-67.367.001-21.171-9.823-40.081-25.142-52.44zM137.99 298.807c-.94.94-1.891 1.859-2.839 2.786v40.3c0 9.77 7.921 17.691 17.691 17.691s17.691-7.921 17.691-17.691V261.16a341.43 341.43 0 0 1-32.543 37.647z" opacity="1" data-original="#5a5a5a"></path><path fill="#fd8087" d="M395.698 366.718c-35.676 52.392-95.907 86.785-164.001 86.483-108.68-.481-197.952-91.59-196.292-200.259 1.64-107.334 89.463-194.146 197.18-194.146 67.732 0 127.598 34.324 163.117 86.492a10.412 10.412 0 0 0 8.603 4.565h24.837c4.791 0 7.816-5.183 5.432-9.339-10.152-17.697-22.712-34.163-37.527-48.977-43.929-43.93-102.336-68.123-164.462-68.123S112.052 47.608 68.123 91.538C24.193 135.466 0 193.874 0 256s24.193 120.534 68.123 164.462c43.929 43.93 102.336 68.123 164.462 68.123s120.534-24.193 164.462-68.123c14.815-14.815 27.375-31.281 37.527-48.977 2.384-4.156-.641-9.339-5.432-9.339h-24.836a10.42 10.42 0 0 0-8.608 4.572z" opacity="1" data-original="#fd8087" class=""></path><g fill="#fe646f"><path d="M373.645 118.335a198.657 198.657 0 0 1 22.058 26.954 10.412 10.412 0 0 0 8.603 4.565h24.836c4.791 0 7.816-5.183 5.432-9.339-10.151-17.697-22.712-34.163-37.526-48.977a235.465 235.465 0 0 0-28.579-24.346c3.983 16.24 5.684 33.432 5.176 51.143zM429.143 362.146h-24.836a10.418 10.418 0 0 0-8.608 4.571c-35.676 52.392-95.907 86.785-164.001 86.483-50.215-.222-96.277-19.802-131.15-51.512-17.597 1.38-34.773.631-51.125-2.302a236.471 236.471 0 0 0 18.7 21.075c43.929 43.93 102.336 68.123 164.462 68.123s120.534-24.193 164.462-68.123c14.815-14.815 27.375-31.28 37.526-48.977 2.385-4.155-.64-9.338-5.43-9.338zM501.593 238.309h-38.504a6.244 6.244 0 0 1-6.244-6.244v-38.504c0-5.747-4.659-10.407-10.406-10.407H431.87c-5.747 0-10.406 4.659-10.406 10.407v38.504a6.245 6.245 0 0 1-6.244 6.244h-38.504c-5.747 0-10.406 4.659-10.406 10.407v14.569c0 5.747 4.659 10.406 10.406 10.406h38.504a6.245 6.245 0 0 1 6.244 6.244v38.504c0 5.747 4.659 10.406 10.406 10.406h14.569c5.747 0 10.406-4.659 10.406-10.406v-38.504a6.244 6.244 0 0 1 6.244-6.244h38.504c5.747 0 10.406-4.659 10.406-10.406v-14.569c.001-5.748-4.658-10.407-10.406-10.407z" fill="#e90011" opacity="1" data-original="#fe646f" class=""></path></g></g></svg>