<svg height="512" viewBox="0 0 24 24" width="512" xmlns="http://www.w3.org/2000/svg"><path d="m2 5v3a1 1 0 0 0 2 0v-3a1 1 0 0 1 1-1h3a1 1 0 0 0 0-2h-3a3 3 0 0 0 -3 3z"/><path d="m2 19a3 3 0 0 0 3 3h3a1 1 0 0 0 0-2h-3a1 1 0 0 1 -1-1v-3a1 1 0 0 0 -2 0z"/><path d="m21 15a1 1 0 0 0 -1 1v3a1 1 0 0 1 -1 1h-3a1 1 0 0 0 0 2h3a3 3 0 0 0 3-3v-3a1 1 0 0 0 -1-1z"/><path d="m19 2h-3a1 1 0 0 0 0 2h3a1 1 0 0 1 1 1v3a1 1 0 0 0 2 0v-3a3 3 0 0 0 -3-3z"/><path d="m8 9v-1a1 1 0 0 0 -2 0v1a1 1 0 0 0 2 0z"/><path d="m18 9v-1a1 1 0 0 0 -2 0v1a1 1 0 0 0 2 0z"/><path d="m15.225 14.368a4 4 0 0 1 -6.45 0 1 1 0 0 0 -1.55 1.264 6 6 0 0 0 9.55 0 1 1 0 1 0 -1.55-1.264z"/><path d="m10 8v3.01a3 3 0 0 0 3 2.99 1 1 0 0 0 -.01-2 .991.991 0 0 1 -.99-.99v-3.01a1 1 0 0 0 -2 0z"/></svg>