<svg xmlns="http://www.w3.org/2000/svg" version="1.1" xmlns:xlink="http://www.w3.org/1999/xlink" width="512" height="512" x="0" y="0" viewBox="0 0 512.002 512.002" style="enable-background:new 0 0 512 512" xml:space="preserve" class=""><g><path d="M444.613 175.648a10 10 0 0 0-16.986-7.408c-12.791 12.504-24.27 10.111-28.611 8.504-5.813-2.152-10-6.809-10.418-11.584-.461-5.258 3.568-10.658 11.344-15.209 4.309-2.52 9.088-5.15 14.148-7.936 21.465-11.813 48.179-26.514 64.822-47.545 20.439-25.826 21.623-55.85 3.521-89.236a10.002 10.002 0 0 0-18.535 2.52c-8.988 38.955-39.223 49.736-74.23 62.219-38.115 13.592-81.314 28.998-99.295 84.691-7.826 24.244-22.224 26.867-26.449 27.094-5.182.273-9.67-1.809-11.18-5.191-2.028-4.549 1.047-11.551 8.225-18.729a9.994 9.994 0 0 0 2.355-10.408 9.997 9.997 0 0 0-8.379-6.607c-72.262-7.611-89.752 31.561-106.666 69.441-12.963 29.035-26.377 59.045-64.07 77.99-12.098 5.705-23.248 13.523-32.987 23.262-22.183 22.182-34.399 51.672-34.399 83.043 0 31.369 12.217 60.863 34.398 83.045 22.182 22.182 51.674 34.398 83.045 34.398 31.369 0 60.862-12.217 83.045-34.398a117.748 117.748 0 0 0 12.609-14.9c63.066-35.709 108.449-81.986 118.643-121.133 3.74-14.363 2.385-27.371-3.918-37.621a9.984 9.984 0 0 0-9.254-4.734 9.998 9.998 0 0 0-8.459 6.043c-9.373 21.926-30.864 28.342-42.215 27.213-4.63-.455-8.145-2.103-8.547-4.01-.861-4.082 5.941-19.783 47.219-43.084 48.809-27.553 83.791-53.545 103.975-77.256 15.706-18.449 17.173-29.521 17.249-32.474zm-379.25 150.01c7.837-7.836 16.776-14.168 26.465-18.861.088-.041.18-.072.268-.115.199-.1.389-.201.587-.301a96.328 96.328 0 0 1 21.874-7.275c-.361 19.879-8.329 38.809-22.634 53.113-14.301 14.305-33.233 22.271-53.112 22.631 3.781-18.513 12.884-35.525 26.552-49.192zm-28.537 69.203c.203.002.408.01.612.01 25.667 0 50.202-10.082 68.627-28.51 18.575-18.576 28.666-43.352 28.507-69.238 9.729.029 19.236 1.475 28.289 4.238.246.09.494.17.746.236 14.769 4.643 28.301 12.801 39.561 24.061 18.918 18.918 28.41 43.744 28.486 68.594-25.869-.145-50.629 9.945-69.189 28.508-18.576 18.574-28.666 43.35-28.506 69.238-25.914-.08-50.264-10.205-68.596-28.537-18.334-18.333-28.459-42.686-28.537-68.6zm117.147 95.152c.361-19.877 8.329-38.809 22.633-53.111 14.284-14.285 33.185-22.248 53.037-22.631-3.698 18.035-12.511 35.225-26.475 49.189-13.669 13.668-30.682 22.772-49.195 26.553zM313.556 267.96c-52.136 29.43-59.75 51.391-56.956 64.629 2.322 11.006 12.102 18.402 26.16 19.785 14.872 1.455 32.853-4.014 46.663-16.705-.068.285-.141.572-.216.859-7.343 28.199-38.675 62.723-82.667 92.398a117.947 117.947 0 0 0 4.467-22.092c.059-.287.11-.576.145-.871.047-.42.061-.836.057-1.248 2.871-33.361-8.424-67.727-33.898-93.201-10.076-10.074-21.664-18.086-34.247-23.838 9.316-12.695 15.472-27.08 21.052-40.146 1.215-2.844 2.398-5.617 3.578-8.273 2.24-5.049-.035-10.957-5.083-13.197s-10.956.035-13.197 5.084a662.328 662.328 0 0 0-3.691 8.531c-5.891 13.793-12.494 29.217-22.63 40.988a118.19 118.19 0 0 0-31.298-3.516c16.741-18.404 26.105-39.373 34.748-58.73 8.285-18.559 15.44-34.586 27.627-45.127 10.087-8.725 23.361-13.115 41.056-13.434-5.186 11.621-2.608 20.682-.747 24.855 4.936 11.066 16.918 17.742 30.517 17.018 19.882-1.068 36.483-16.365 44.411-40.922 14.951-46.313 49.938-58.789 86.98-71.998 29.883-10.656 60.587-21.605 77.41-51.32 9.028 39.797-24.865 62.523-69.35 87.004-5.179 2.85-10.07 5.541-14.606 8.195-14.607 8.547-22.323 21.018-21.167 34.217 1.096 12.512 10.278 23.734 23.395 28.592a41.464 41.464 0 0 0 17.529 2.473c-14.322 15.895-42.142 39.563-96.042 69.99z" style="" fill="#ffffff" data-original="#000001" class="" opacity="1"></path><path d="M209.845 201.603c-.258.205-.512.412-.763.623-4.231 3.549-4.782 9.857-1.233 14.088a9.983 9.983 0 0 0 7.666 3.572 9.96 9.96 0 0 0 6.423-2.34c.118-.1.239-.197.36-.295 4.322-3.438 5.037-9.73 1.598-14.051-3.44-4.32-9.733-5.037-14.051-1.597zM398.503 275.431l-.682.396c-4.783 2.762-6.422 8.877-3.661 13.66a9.998 9.998 0 0 0 8.67 5.004 9.96 9.96 0 0 0 4.989-1.342l.76-.441c4.771-2.783 6.383-8.906 3.6-13.678-2.782-4.769-8.904-6.382-13.676-3.599zM462.564 224.482c-.182.176-18.465 17.742-39.168 33.729-4.371 3.375-5.179 9.654-1.803 14.025a9.979 9.979 0 0 0 7.922 3.889 9.96 9.96 0 0 0 6.104-2.084c21.561-16.647 40.045-34.406 40.82-35.154 3.979-3.832 4.097-10.162.266-14.139-3.834-3.979-10.164-4.096-14.141-.266z" style="" fill="#ffffff" data-original="#000001" class="" opacity="1"></path></g></svg>