<svg id="Layer_1" height="512" viewBox="0 0 49 49" width="512" xmlns="http://www.w3.org/2000/svg"><g><path d="m27.9 5.6c0 2.8-2.3 9-5.1 9s-5.1-6.2-5.1-9 2.3-5.1 5.1-5.1 5.1 2.3 5.1 5.1z" fill="#ffb664"/><circle cx="22.8" cy="42.7" fill="#e87b40" r="5.8"/><path d="m38.5 42.7h-31.4c-3.7 0-4.8-5-1.5-6.6 1.2-.6 2-1.8 2-3.1v-10.3c0-8.4 6.8-15.2 15.2-15.2 4.2 0 8 1.7 10.7 4.5 2.8 2.7 4.5 6.5 4.5 10.7v10.3c0 1.3.8 2.6 2 3.1 3.3 1.6 2.2 6.6-1.5 6.6z" fill="#ffce53"/><g><circle cx="36.6" cy="18.2" fill="#e24c5b" r="8.8"/><g fill="#fff"><circle cx="32.7" cy="18.2" r="1.2"/><circle cx="36.6" cy="18.2" r="1.2"/><circle cx="40.5" cy="18.2" r="1.2"/></g></g></g></svg>