<svg xmlns="http://www.w3.org/2000/svg" version="1.1" xmlns:xlink="http://www.w3.org/1999/xlink" width="512" height="512" x="0" y="0" viewBox="0 0 66 66" style="enable-background:new 0 0 512 512" xml:space="preserve" class=""><g><path d="M40.53 39.05c.44-.59.66-1.35.66-2.28s-.22-1.69-.66-2.28c-.43-.58-1.02-.86-1.8-.86s-1.37.28-1.8.86c-.44.59-.66 1.35-.66 2.28s.22 1.69.66 2.28c.43.58 1.02.86 1.8.86s1.37-.28 1.8-.86zM50.61 44.6c-.78 0-1.37.28-1.8.86-.44.59-.66 1.35-.66 2.28s.22 1.69.66 2.28c.43.58 1.02.86 1.8.86s1.37-.28 1.8-.86c.44-.59.66-1.35.66-2.28s-.22-1.69-.66-2.28c-.43-.58-1.02-.86-1.8-.86zM20.2 21.53c.55 0 1 .45 1 1a2.88 2.88 0 0 0 5.76 0c0-.55.45-1 1-1h33.95c.84 0 1.63.19 2.33.53L60.93 8.62a3.471 3.471 0 0 0-4.18-2.54l-32.1 7.9c.08 2.26-1.43 4.36-3.71 4.91-1.27.31-2.58.11-3.69-.56a4.85 4.85 0 0 1-1.88-2.06L3.26 19.24a3.468 3.468 0 0 0-2.53 4.19l.69 2.8c.37-2.65 2.65-4.7 5.4-4.7z" fill="#ffffff" opacity="1" data-original="#000000" class=""></path><path d="M61.91 23.53H28.85c-.46 2.21-2.43 3.88-4.78 3.88s-4.31-1.67-4.78-3.88H6.83c-1.91 0-3.46 1.55-3.46 3.46v29.56c0 1.91 1.55 3.46 3.46 3.46H19.3c.46-2.21 2.43-3.88 4.78-3.88s4.31 1.67 4.78 3.88h33.05c1.91 0 3.46-1.55 3.46-3.46V26.99c0-1.9-1.56-3.46-3.46-3.46zM16.24 54.42H9.28c-.55 0-1-.45-1-1s.45-1 1-1h6.96c.55 0 1 .45 1 1s-.45 1-1 1zm0-5.82H9.28c-.55 0-1-.45-1-1s.45-1 1-1h6.96c.55 0 1 .45 1 1s-.45 1-1 1zm0-5.83H9.28c-.55 0-1-.45-1-1s.45-1 1-1h6.96c.55 0 1 .45 1 1s-.45 1-1 1zm0-5.82H9.28c-.55 0-1-.45-1-1s.45-1 1-1h6.96c.55 0 1 .45 1 1s-.45 1-1 1zm0-5.82H9.28c-.55 0-1-.45-1-1s.45-1 1-1h6.96c.55 0 1 .45 1 1s-.45 1-1 1zm8.73 21.08c0 .55-.45 1-1 1s-1-.45-1-1v-2.25c0-.55.45-1 1-1s1 .45 1 1zm0-6.21c0 .55-.45 1-1 1s-1-.45-1-1v-2.25c0-.55.45-1 1-1s1 .45 1 1zm0-6.21c0 .55-.45 1-1 1s-1-.45-1-1v-2.25c0-.55.45-1 1-1s1 .45 1 1zm0-6.21c0 .55-.45 1-1 1s-1-.45-1-1v-2.25c0-.55.45-1 1-1s1 .45 1 1zm8.85 3.19c0-1.56.43-2.87 1.27-3.88.85-1.03 2.08-1.55 3.63-1.55 1.56 0 2.78.52 3.63 1.55.85 1.02 1.27 2.32 1.27 3.88s-.43 2.87-1.27 3.88c-.85 1.03-2.07 1.55-3.63 1.55s-2.78-.52-3.63-1.55c-.84-1.01-1.27-2.32-1.27-3.88zm5.51 15.99a1.134 1.134 0 0 1-1.41-.15c-.24-.22-.35-.5-.35-.83 0-.21.06-.41.18-.6l11.91-19.05c.23-.37.57-.56.99-.56.34 0 .62.09.84.28.23.2.35.46.35.79 0 .25-.08.5-.24.75L39.77 52.32c-.11.18-.26.33-.44.44zm14.91-1.14c-.85 1.03-2.08 1.55-3.63 1.55s-2.78-.52-3.63-1.55c-.85-1.02-1.27-2.32-1.27-3.88s.43-2.87 1.27-3.88c.85-1.03 2.08-1.55 3.63-1.55 1.56 0 2.78.52 3.63 1.55.85 1.02 1.27 2.32 1.27 3.88s-.43 2.87-1.27 3.88z" fill="#ffffff" opacity="1" data-original="#000000" class=""></path></g></svg>