<svg xmlns="http://www.w3.org/2000/svg" version="1.1" xmlns:xlink="http://www.w3.org/1999/xlink" width="512" height="512" x="0" y="0" viewBox="0 0 24 24" style="enable-background:new 0 0 512 512" xml:space="preserve" class=""><g><path d="M20 22.75h-2.5A2.753 2.753 0 0 1 14.75 20v-3.5a.75.75 0 0 0-.75-.75h-4a.75.75 0 0 0-.75.75V20a2.753 2.753 0 0 1-2.75 2.75H4A2.753 2.753 0 0 1 1.25 20V9.042a2.75 2.75 0 0 1 1.173-2.253l8-5.6a2.76 2.76 0 0 1 3.154 0l8 5.6a2.75 2.75 0 0 1 1.173 2.253V20A2.753 2.753 0 0 1 20 22.75zm-10-8.5h4a2.252 2.252 0 0 1 2.25 2.25V20a1.252 1.252 0 0 0 1.25 1.25H20A1.252 1.252 0 0 0 21.25 20V9.042a1.252 1.252 0 0 0-.533-1.025l-8-5.6a1.255 1.255 0 0 0-1.434 0l-8 5.6a1.252 1.252 0 0 0-.533 1.025V20A1.252 1.252 0 0 0 4 21.25h2.5A1.252 1.252 0 0 0 7.75 20v-3.5A2.252 2.252 0 0 1 10 14.25z" data-name="Layer 2" fill="#ffffff" opacity="1" data-original="#000000" class=""></path></g></svg>