<svg xmlns="http://www.w3.org/2000/svg" version="1.1" xmlns:xlink="http://www.w3.org/1999/xlink" width="512" height="512" x="0" y="0" viewBox="0 0 512 512" style="enable-background:new 0 0 512 512" xml:space="preserve" fill-rule="evenodd" class=""><g><path d="M115 473c-20 0-35-16-35-35v-88c0-3 3-6 6-6h57c4 0 6 3 6 6v88c0 19-15 35-34 35zM95 332V209l-6-12c-1-2-1-4-1-6l16-30c1-2 3-3 5-3h11c2 0 4 1 5 3l16 31c1 1 1 4 0 5l-7 12v123z" fill="#fefefe" opacity="1" data-original="#000000" class=""></path><path d="M68 384H20c-6 0-12-3-16-7-3-4-5-9-4-13l34-238c2-10 10-18 20-18h409c6 0 12 3 16 7 3 4 5 9 4 13l-15 103c-1-1-1-2-2-3-6-5-13-10-22-10-7 0-13 4-19 9-4 3-8 7-12 11-1-1-3-2-5-2 1-13 1-27-8-37-5-5-12-7-19-7-11 0-23-1-34 0-8 0-16 1-23 8-5 5-6 12-7 19v17c-2 0-4 1-5 2-9-10-19-20-32-20-7 0-14 3-19 8-8 8-16 16-23 24-6 6-11 13-11 22 0 7 4 13 8 19l12 12c-1 1-2 3-2 5-13-1-27-1-37 8-5 5-7 12-7 19 0 11-1 22 0 33 0 6 1 11 3 16h-43v-34c0-9-6-17-15-18V213l5-10c3-5 3-11 0-17l-15-30c-3-6-9-10-16-10h-11c-7 0-13 3-16 10l-15 30c-3 5-3 11 0 16l5 10v120c-8 1-15 9-15 18zm286-235H209c-3 0-6-2-6-6 0-3 3-6 6-6h145c3 0 6 3 6 6 0 4-3 6-6 6zm-22 25H188c-4 0-6-2-6-6 0-3 2-6 6-6h144c3 0 6 3 6 6 0 4-3 6-6 6z" fill="#fefefe" opacity="1" data-original="#000000" class=""></path><path d="M5 245V29C5 18 14 9 26 9h172c12 0 18 10 22 19 1 1 1 2 2 3l14 27h195c11 0 20 10 20 21v17H54c-16 0-29 13-31 29zM363 443c-9 0-18-1-27-4-2-1-4-3-4-6v-33c-34-23-35-73-2-97 4-3 9 0 9 5v46h51v-46c0-5 5-8 9-5 33 24 32 74-2 97v32c0 2-2 5-4 5-10 4-20 6-30 6z" fill="#fefefe" opacity="1" data-original="#000000" class=""></path><path d="M381 503c-55 0-52 5-52-40-7-3-14-5-20-9-32 32-26 31-65-8-14-14 6-27 17-39-3-7-6-13-8-20-45 0-40 3-40-52 0-19 24-15 40-15 2-7 5-14 8-20-32-32-30-27 9-65 14-14 28 6 39 17 6-3 13-6 20-8 0-45-3-40 52-40 19 0 15 24 15 40 7 2 13 5 20 8 32-32 26-30 65 9 14 13-6 27-18 39 4 6 6 13 9 20 45 0 40-3 40 52 0 19-24 15-40 15-3 7-5 13-9 20 32 32 31 26-8 65-14 14-28-7-39-18-7 4-13 6-20 9 0 16 4 40-15 40zm-19-73c-42 0-76-35-76-77s34-76 76-76 77 34 77 76-35 77-77 77z" fill="#fefefe" opacity="1" data-original="#000000" class=""></path></g></svg>