<svg id="Layer_2" enable-background="new 0 0 512 512" viewBox="0 0 512 512" xmlns="http://www.w3.org/2000/svg"><g><g fill="#bdc9cd"><path d="m318.4 181.6c11.4-18.3 17.5-39.4 17.7-61 .2-31.1-11.8-60.5-33.8-82.8-22.1-22.3-51.3-34.6-82.4-34.8-.2 0-.4 0-.7 0-31.1 0-60.3 12.1-82.4 34-22.2 22.1-34.4 51.5-34.4 82.8 0 21.9 6.1 43.3 17.7 61.8 14.9 23.8 37.1 41 62.9 49.3.5.2 1.1.3 1.6.5 5.5 1.7 11.2 3 16.9 3.9.2 0 .4.1.5.1 1.2.2 2.3.3 3.5.5.4 0 .7.1 1.1.1l3 .3c.4 0 .8.1 1.3.1 1 .1 2 .1 3 .2.4 0 .8 0 1.2.1 1.4 0 2.8.1 4.2.1s2.8 0 4.1-.1c.4 0 .8 0 1.2-.1 1 0 2-.1 3-.2.4 0 .9-.1 1.3-.1 1-.1 2-.2 3-.3.4 0 .7-.1 1.1-.1 1.1-.1 2.3-.3 3.4-.5.2 0 .4-.1.6-.1 5.7-.9 11.4-2.2 16.9-3.9.3-.1.6-.2 1-.3 25.9-8.3 48.5-25.5 63.5-49.5z"/><path d="m336.7 433c-.1-.2-.2-.4-.3-.7.1.3.2.5.3.7z"/><path d="m336.4 420.9c.1-.2.2-.4.3-.7-.1.3-.2.5-.3.7z"/><path d="m335.9 422.3c.1-.2.2-.5.3-.7-.1.2-.2.4-.3.7z"/><path d="m335.5 428.8c0-.2-.1-.4-.1-.7 0 .3 0 .5.1.7z"/><path d="m336.2 431.7c-.1-.2-.2-.5-.3-.7.1.2.2.5.3.7z"/><path d="m335.3 426.6c0 .1 0 .1 0 0z"/><path d="m335.4 425.2c0-.2.1-.5.1-.7-.1.2-.1.4-.1.7z"/><path d="m335.8 430.3c-.1-.3-.1-.5-.2-.8 0 .3.1.6.2.8z"/><path d="m335.6 423.7c.1-.3.1-.5.2-.8-.1.3-.2.6-.2.8z"/></g><path d="m497 411.6h-110.5l41.8-41.8c5.9-5.9 5.9-15.4 0-21.2-5.9-5.9-15.4-5.9-21.2 0l-67.4 67.4c-.4.4-.7.7-1 1.1-.1.2-.3.3-.4.5-.2.2-.3.4-.5.7-.1.2-.3.4-.4.6s-.3.4-.4.6-.2.4-.3.7c-.1.2-.2.4-.3.7-.1.2-.2.4-.2.7-.1.2-.2.5-.3.7s-.1.4-.2.7-.1.5-.2.8-.1.5-.1.8c0 .2-.1.4-.1.7 0 .5-.1 1-.1 1.4v.1c0 .5 0 1 .1 1.4 0 .2.1.5.1.7 0 .3.1.5.1.8.1.3.1.5.2.8.1.2.1.4.2.7.1.2.2.5.3.7s.2.4.2.7c.1.2.2.4.3.7.1.2.2.5.3.7s.2.4.4.6c.1.2.3.4.4.6.2.2.3.4.5.7.1.2.3.4.4.5.3.4.6.7 1 1.1l67.4 67.4c2.9 2.9 6.8 4.4 10.6 4.4s7.7-1.5 10.6-4.4c5.9-5.9 5.9-15.4 0-21.2l-41.8-41.8h110.5c8.3 0 15-6.7 15-15s-6.7-15.3-15-15.3z" fill="#54d6a2"/><path d="m262.7 260c-14 4.4-28.7 6.6-43.5 6.6s-29.5-2.2-43.5-6.6c-13.3-4.1-26.8-6.1-40.1-6.1-44.8 0-87.1 22.6-110.7 61.9-10.7 17.9-19 37.1-24.4 57.2-1.5 5.4.5 11.2 5 14.4 62.5 45 136.5 68.7 213.8 68.7 17.2 0 34.5-1.2 51.6-3.6-1.4-8.5-2.2-17.2-2.2-25.8 0-39 14.5-76.2 40.9-104.9 19-20.7 43-35.6 69.4-43.5-32.8-23.6-75.9-30.8-116.3-18.3z" fill="#bdc9cd"/></g></svg>